<?xml version="1.0" encoding="utf-8"?>
<!-- Generator: Adobe Illustrator 25.2.0, SVG Export Plug-In . SVG Version: 6.00 Build 0)  -->
<svg version="1.1" id="Calque_1" xmlns="http://www.w3.org/2000/svg" xmlns:xlink="http://www.w3.org/1999/xlink" x="0px" y="0px"
	 viewBox="0 0 400 60" style="enable-background:new 0 0 400 60;" xml:space="preserve">
<style type="text/css">
	.st0{fill:#FFFFFF;}
	.st1{fill:#A00AA5;}
</style>
<g>
	<g>
		<path d="M50.46,60H15.49C8.61,60,2.98,54.37,2.98,47.49V12.51C2.98,5.63,8.61,0,15.49,0h34.97c6.88,0,12.51,5.63,12.51,12.51
			v34.97C62.98,54.37,57.35,60,50.46,60z"/>
		<g>
			<path class="st0" d="M39,47.37l-8.15-14.23h-2.08v14.23h-9.11V9.69h15.56c2.98,0,5.51,0.52,7.57,1.55
				c2.06,1.03,3.61,2.44,4.64,4.24c1.03,1.79,1.55,3.85,1.55,6.15c0,2.74-0.76,5.06-2.27,6.98c-1.51,1.92-3.7,3.23-6.58,3.94
				l8.95,14.81H39z M28.77,26.9h5.65c1.81,0,3.14-0.4,4-1.2c0.85-0.8,1.28-1.98,1.28-3.54c0-1.49-0.44-2.66-1.31-3.52
				c-0.87-0.85-2.19-1.28-3.97-1.28h-5.65V26.9z"/>
		</g>
	</g>
	<g>
		<g>
			<path d="M107.81,34.26c2.19-1.08,3.87-2.64,5.03-4.67c1.16-2.03,1.74-4.46,1.74-7.29c0-2.82-0.57-5.27-1.71-7.36
				c-1.14-2.09-2.79-3.7-4.96-4.85c-2.17-1.14-4.78-1.72-7.84-1.72H84.1v42.62h8.56V35.88h6.25l7.67,15.11h9.45l-8.6-16.57
				C107.55,34.36,107.69,34.32,107.81,34.26z M92.66,15.73h5.77c1.65,0,3.01,0.25,4.1,0.76c1.09,0.51,1.9,1.25,2.43,2.22
				c0.53,0.97,0.8,2.16,0.8,3.58c0,1.4-0.27,2.57-0.8,3.52c-0.53,0.94-1.34,1.65-2.42,2.12c-1.08,0.47-2.44,0.71-4.07,0.71h-5.81
				V15.73z"/>
			<path d="M143.62,22.64c-1.3-1.35-2.81-2.35-4.55-3.03c-1.73-0.67-3.6-1.01-5.6-1.01c-2.98,0-5.57,0.69-7.78,2.08
				c-2.21,1.39-3.92,3.32-5.13,5.81c-1.21,2.48-1.82,5.37-1.82,8.66c0,3.37,0.61,6.29,1.82,8.75c1.21,2.46,2.94,4.36,5.19,5.7
				c2.25,1.34,4.93,2.01,8.06,2.01c2.5,0,4.71-0.41,6.63-1.22c1.92-0.81,3.49-1.95,4.71-3.41c1.22-1.46,2.03-3.18,2.42-5.15
				l-7.79-0.54c-0.29,0.81-0.71,1.48-1.27,2.04c-0.55,0.56-1.22,0.97-2,1.25c-0.78,0.28-1.63,0.42-2.57,0.42
				c-1.41,0-2.63-0.31-3.66-0.94c-1.03-0.62-1.82-1.51-2.38-2.66c-0.56-1.15-0.84-2.52-0.84-4.1v-0.02h20.68v-2.43
				c0-2.72-0.36-5.09-1.09-7.13C145.92,25.68,144.91,23.99,143.62,22.64z M127.08,31.78c0.05-1.15,0.32-2.2,0.83-3.15
				c0.55-1.03,1.32-1.86,2.3-2.48c0.98-0.62,2.11-0.93,3.39-0.93c1.23,0,2.3,0.28,3.23,0.84c0.93,0.56,1.66,1.34,2.18,2.32
				c0.53,0.98,0.79,2.12,0.79,3.39H127.08z"/>
			<path d="M175.09,21.17c-1.21-0.87-2.58-1.52-4.13-1.94c-1.55-0.42-3.17-0.62-4.85-0.62c-2.43,0-4.56,0.38-6.4,1.15
				c-1.84,0.77-3.34,1.87-4.5,3.29c-1.16,1.42-1.94,3.1-2.33,5.05l7.79,0.67c0.29-1.05,0.88-1.93,1.78-2.63
				c0.9-0.7,2.1-1.05,3.62-1.05c1.44,0,2.55,0.36,3.33,1.08c0.78,0.72,1.18,1.74,1.18,3.06v0.13c0,0.68-0.24,1.19-0.73,1.54
				c-0.49,0.35-1.27,0.61-2.35,0.78c-1.08,0.17-2.5,0.36-4.27,0.55c-1.5,0.15-2.94,0.42-4.3,0.79c-1.36,0.37-2.58,0.93-3.65,1.66
				c-1.07,0.74-1.91,1.71-2.53,2.91c-0.62,1.21-0.93,2.7-0.93,4.47c0,2.11,0.44,3.87,1.31,5.28c0.88,1.41,2.07,2.47,3.59,3.18
				c1.52,0.71,3.24,1.07,5.18,1.07c1.5,0,2.83-0.21,3.97-0.63c1.15-0.42,2.13-1.01,2.95-1.77c0.82-0.76,1.47-1.63,1.96-2.63h0.24
				v4.43h7.98V29.43c0-1.9-0.35-3.53-1.05-4.9C177.24,23.16,176.29,22.04,175.09,21.17z M170.63,39.56c0,1.12-0.27,2.13-0.81,3.02
				c-0.54,0.89-1.29,1.59-2.23,2.11c-0.95,0.52-2.04,0.78-3.28,0.78c-1.29,0-2.36-0.32-3.19-0.95c-0.84-0.63-1.25-1.55-1.25-2.76
				c0-0.83,0.2-1.53,0.61-2.09c0.41-0.56,0.98-1.01,1.72-1.34s1.6-0.58,2.59-0.73c0.46-0.07,0.98-0.15,1.54-0.24
				c0.57-0.09,1.13-0.19,1.7-0.31c0.57-0.12,1.08-0.25,1.53-0.4c0.45-0.15,0.81-0.31,1.08-0.49V39.56z"/>
			<rect x="185.53" y="8.37" width="8.42" height="42.62"/>
			<path d="M215.15,44.17c-0.4,0.08-0.79,0.11-1.19,0.11c-0.57,0-1.07-0.09-1.49-0.27c-0.43-0.18-0.76-0.5-1-0.95
				c-0.24-0.45-0.36-1.09-0.36-1.9V25.68h5.71v-6.66h-5.71v-7.66h-8.42v7.66h-4.15v6.66h4.15v16.65c-0.01,2.09,0.4,3.83,1.24,5.2
				c0.84,1.37,2.03,2.39,3.55,3.04c1.52,0.65,3.3,0.94,5.33,0.85c1.09-0.04,2.02-0.16,2.79-0.34c0.76-0.19,1.36-0.35,1.78-0.49
				l-1.33-6.6C215.85,44.04,215.54,44.09,215.15,44.17z"/>
			<path d="M243.66,20.68c-2.23-1.38-4.89-2.07-7.96-2.07c-3.07,0-5.72,0.69-7.96,2.07s-3.96,3.31-5.17,5.78
				c-1.21,2.48-1.82,5.37-1.82,8.67c0,3.27,0.61,6.15,1.82,8.63c1.21,2.48,2.94,4.4,5.17,5.78c2.23,1.38,4.89,2.07,7.96,2.07
				c3.07,0,5.72-0.69,7.96-2.07c2.23-1.38,3.96-3.31,5.17-5.78c1.21-2.48,1.82-5.35,1.82-8.63c0-3.3-0.61-6.19-1.82-8.67
				C247.62,23.99,245.9,22.06,243.66,20.68z M241.37,40.04c-0.48,1.46-1.19,2.6-2.13,3.44c-0.94,0.84-2.1,1.26-3.5,1.26
				c-1.41,0-2.59-0.42-3.55-1.26s-1.67-1.99-2.16-3.44c-0.48-1.46-0.72-3.11-0.72-4.97c0-1.86,0.24-3.52,0.72-4.97
				c0.48-1.46,1.2-2.61,2.16-3.45c0.96-0.85,2.14-1.27,3.55-1.27c1.4,0,2.56,0.42,3.5,1.27c0.94,0.85,1.64,2,2.13,3.45
				c0.48,1.46,0.72,3.11,0.72,4.97C242.09,36.93,241.85,38.58,241.37,40.04z"/>
			<path d="M273.29,18.65c-0.49-0.05-0.94-0.08-1.36-0.08c-1.7,0-3.2,0.51-4.51,1.53c-1.3,1.02-2.23,2.52-2.79,4.51h-0.32v-5.58
				h-8.16v31.96h8.42V32.9c0-1.3,0.28-2.46,0.84-3.45c0.56-1,1.32-1.78,2.29-2.34c0.97-0.56,2.07-0.84,3.31-0.84
				c0.58,0,1.22,0.05,1.92,0.15c0.7,0.1,1.25,0.21,1.64,0.33v-7.87C274.2,18.78,273.77,18.7,273.29,18.65z"/>
		</g>
		<g>
			<path class="st1" d="M278.75,51.38c-1.08,0-2.01-0.41-2.79-1.22c-0.78-0.81-1.17-1.79-1.17-2.94c0-1.14,0.39-2.11,1.17-2.92
				c0.78-0.81,1.71-1.22,2.79-1.22c1.08,0,2.01,0.41,2.79,1.22c0.78,0.81,1.17,1.79,1.17,2.92c0,0.76-0.18,1.46-0.54,2.09
				c-0.36,0.63-0.84,1.13-1.43,1.51C280.13,51.19,279.47,51.38,278.75,51.38z"/>
			<path class="st1" d="M303.4,51.63c-2.94,0-5.47-0.7-7.58-2.11s-3.74-3.35-4.87-5.84c-1.13-2.48-1.7-5.33-1.7-8.53
				c0-3.25,0.58-6.11,1.74-8.6c1.16-2.49,2.79-4.44,4.9-5.84c2.11-1.4,4.59-2.1,7.45-2.1c2.31,0,4.36,0.45,6.17,1.34
				c1.8,0.9,3.26,2.15,4.38,3.76c1.11,1.61,1.78,3.49,1.99,5.64h-5.75c-0.32-1.5-1.04-2.79-2.16-3.87
				c-1.13-1.08-2.63-1.62-4.52-1.62c-1.65,0-3.09,0.45-4.32,1.36c-1.23,0.91-2.19,2.2-2.88,3.87c-0.69,1.67-1.03,3.65-1.03,5.92
				c0,2.33,0.34,4.34,1.01,6.03c0.67,1.69,1.62,3,2.86,3.93c1.23,0.93,2.68,1.39,4.36,1.39c1.12,0,2.14-0.22,3.05-0.66
				c0.92-0.44,1.69-1.06,2.31-1.88c0.63-0.82,1.06-1.8,1.31-2.96h5.75c-0.21,2.07-0.85,3.91-1.92,5.54
				c-1.07,1.62-2.49,2.9-4.28,3.83C307.89,51.17,305.8,51.63,303.4,51.63z"/>
			<path class="st1" d="M335.01,51.63c-2.85,0-5.33-0.69-7.45-2.06c-2.12-1.37-3.77-3.29-4.94-5.76c-1.17-2.47-1.76-5.35-1.76-8.66
				c0-3.32,0.59-6.22,1.76-8.7c1.17-2.48,2.82-4.41,4.94-5.78c2.12-1.37,4.61-2.06,7.45-2.06s5.33,0.69,7.45,2.06
				c2.12,1.37,3.77,3.3,4.94,5.78c1.17,2.48,1.76,5.38,1.76,8.7c0,3.3-0.59,6.19-1.76,8.66c-1.17,2.47-2.82,4.39-4.94,5.76
				C340.34,50.94,337.85,51.63,335.01,51.63z M335.03,46.41c1.85,0,3.37-0.51,4.59-1.54c1.21-1.03,2.11-2.39,2.7-4.1
				c0.59-1.71,0.88-3.59,0.88-5.64c0-2.04-0.29-3.92-0.88-5.63c-0.59-1.71-1.49-3.09-2.7-4.13c-1.21-1.04-2.74-1.56-4.59-1.56
				c-1.86,0-3.4,0.52-4.62,1.56c-1.22,1.04-2.12,2.42-2.71,4.13c-0.59,1.71-0.88,3.59-0.88,5.63c0,2.05,0.29,3.93,0.88,5.64
				c0.59,1.71,1.49,3.07,2.71,4.1C331.63,45.89,333.17,46.41,335.03,46.41z"/>
			<path class="st1" d="M355.74,50.99V19.02h5.67v5.2h0.38c0.63-1.76,1.67-3.14,3.1-4.13c1.44-0.99,3.16-1.49,5.16-1.49
				c2.03,0,3.73,0.5,5.11,1.5c1.38,1,2.4,2.37,3.05,4.12h0.32c0.72-1.71,1.88-3.07,3.46-4.09c1.58-1.02,3.47-1.53,5.65-1.53
				c2.75,0,5,0.91,6.75,2.73c1.75,1.82,2.62,4.56,2.62,8.22v21.43h-5.91V30.13c0-2.16-0.56-3.73-1.68-4.7
				c-1.12-0.97-2.46-1.46-4.01-1.46c-1.92,0-3.42,0.62-4.49,1.86c-1.07,1.24-1.6,2.83-1.6,4.78v20.37h-5.89V29.74
				c0-1.73-0.51-3.13-1.54-4.18c-1.03-1.05-2.37-1.58-4.01-1.58c-1.12,0-2.15,0.31-3.09,0.93c-0.94,0.62-1.7,1.47-2.27,2.57
				c-0.57,1.1-0.86,2.37-0.86,3.81v19.71H355.74z"/>
		</g>
	</g>
</g>
</svg>
